<svg version="1.1" id="Layer_1" xmlns="http://www.w3.org/2000/svg" xmlns:xlink="http://www.w3.org/1999/xlink" x="0px" y="0px"
	 width="100%" viewBox="0 0 430 431" enable-background="new 0 0 430 431" xml:space="preserve">

<path class="fill" fill="#edf4d2" opacity="1.000000" stroke="none" 
	d="
M62.119572,369.934875 
	C53.536449,363.333557 49.828766,354.361389 47.904190,344.500519 
	C46.405384,336.821167 45.292366,329.067291 43.925137,321.361206 
	C42.724079,314.591736 39.679821,308.785858 34.580128,304.100952 
	C28.937943,298.917694 23.276926,293.753937 17.694933,288.506348 
	C4.123190,275.747681 0.390984,260.582672 6.764153,243.024750 
	C9.490528,235.513641 12.261182,228.018280 15.066331,220.536240 
	C17.381485,214.361160 17.375706,208.145279 15.504157,201.898605 
	C13.257748,194.400772 10.933570,186.926254 8.653007,179.438614 
	C3.394244,162.172791 7.445176,147.549149 21.206654,135.782928 
	C27.027855,130.805725 32.997562,126.001541 38.923397,121.147568 
	C44.800079,116.333839 48.682091,110.330429 50.278973,102.839912 
	C51.841171,95.512085 53.504776,88.204521 55.227264,80.912483 
	C59.586124,62.459518 71.302879,51.962322 89.926125,48.979748 
	C96.505478,47.926041 103.068588,46.767422 109.656357,45.770634 
	C118.078613,44.496265 124.989159,40.670441 130.666702,34.283234 
	C136.084579,28.188124 141.621231,22.173527 147.443268,16.468016 
	C159.051834,5.091779 172.841415,2.522944 188.064911,7.534864 
	C195.649704,10.031948 203.077728,13.012262 210.545074,15.856923 
	C217.829285,18.631815 225.149002,18.861881 232.585144,16.551727 
	C240.056931,14.230495 247.506104,11.822844 255.036209,9.705713 
	C271.360565,5.116035 285.345276,8.960129 296.583252,21.829632 
	C300.743713,26.594126 304.940155,31.367746 308.642517,36.482952 
	C315.485809,45.937698 324.530457,51.337036 336.023926,53.085003 
	C341.279327,53.884262 346.438782,55.321949 351.635651,56.497021 
	C370.341522,60.726624 381.030853,72.430229 384.080627,91.279800 
	C385.197937,98.185410 386.466217,105.067108 387.536346,111.979713 
	C388.762451,119.899940 392.505341,126.320503 398.429047,131.665161 
	C404.485321,137.129456 410.546417,142.613129 416.258362,148.429153 
	C427.743500,160.123581 430.599884,174.003479 425.514160,189.451279 
	C423.068848,196.878815 420.189331,204.167603 417.372162,211.467392 
	C414.435822,219.076187 414.179474,226.689789 416.664001,234.460876 
	C418.945190,241.596039 421.190826,248.746170 423.257324,255.945618 
	C428.115723,272.871643 423.967529,287.202179 410.511597,298.668549 
	C404.936066,303.419678 399.293762,308.099915 393.540894,312.633575 
	C386.679626,318.040741 382.786102,325.048950 380.828308,333.502747 
	C378.542297,343.373718 376.289215,353.315918 372.993011,362.872375 
	C369.336578,373.473358 361.220642,380.299286 350.468628,383.098328 
	C340.827789,385.608093 330.927338,387.159882 321.100372,388.902802 
	C313.417114,390.265503 306.989685,393.643768 301.759460,399.448914 
	C296.632355,405.139557 291.490997,410.825836 286.149597,416.313232 
	C273.722137,429.080597 258.960907,432.338928 242.215103,426.494476 
	C234.828247,423.916382 227.539124,421.056946 220.217133,418.294708 
	C213.413986,415.728271 206.589432,415.602875 199.654541,417.798096 
	C192.351822,420.109833 185.011948,422.305267 177.676361,424.511871 
	C160.566818,429.658569 146.114960,425.503174 134.469879,411.949371 
	C129.478348,406.139709 124.646530,400.190918 119.815254,394.245941 
	C114.901390,388.199371 108.720825,384.381165 101.083733,382.663635 
	C91.994331,380.619476 82.888977,378.555023 73.963196,375.915497 
	C69.899750,374.713837 66.251045,372.109680 62.119572,369.934875 
M188.161133,241.749191 
	C187.903168,243.220566 187.645203,244.691925 187.391098,246.798752 
	C187.261444,247.198761 187.131790,247.598770 186.239746,248.046997 
	C184.911209,250.853989 183.208572,253.548859 182.327271,256.489868 
	C180.067215,264.032074 178.172028,271.683594 176.193237,279.973572 
	C175.606842,281.364044 175.020432,282.754517 173.769653,284.445221 
	C171.169174,291.607758 168.397095,298.714996 166.061279,305.962830 
	C165.242706,308.502777 165.496674,311.388397 165.209991,314.770752 
	C164.796906,315.519836 164.383804,316.268921 163.529037,317.476105 
	C163.640381,318.644470 163.751724,319.812866 163.998993,321.654816 
	C163.956284,322.108826 163.913559,322.562836 163.432205,323.600708 
	C162.904999,329.284027 164.898285,333.113403 169.723221,334.964508 
	C169.998383,335.127869 170.133820,335.369537 170.159988,336.440308 
	C171.946472,342.079254 177.109039,340.570221 181.046997,341.458099 
	C188.139114,343.057098 195.016968,340.364838 197.981155,334.796631 
	C202.563110,326.189514 204.783401,316.325165 208.489044,306.486725 
	C213.271317,292.259125 218.103333,278.048004 222.821243,263.799103 
	C227.127426,250.793777 231.427399,237.784058 235.499146,224.704361 
	C237.635162,217.842758 238.090668,210.982864 232.854736,204.286102 
	C226.812515,199.037018 220.799622,193.753204 214.684494,188.590454 
	C214.045288,188.050781 212.801468,188.227249 211.229599,187.809021 
	C199.547623,175.483536 187.906311,163.119049 176.153519,150.861450 
	C173.405045,147.994919 170.473969,145.226074 167.286438,142.873627 
	C160.133682,137.594818 144.655685,139.838806 141.059952,152.732162 
	C138.826202,160.741760 141.503036,166.973465 146.925873,172.678055 
	C159.758652,186.177582 172.476212,199.786667 185.189972,214.119247 
	C185.692673,215.130417 185.933899,216.483917 186.739166,217.098907 
	C193.572540,222.317657 192.414169,228.481857 188.896423,235.798447 
	C188.961411,237.723831 189.026413,239.649200 189.073410,241.830383 
	C189.073410,241.830383 188.862381,241.976089 188.161133,241.749191 
M201.653198,55.023365 
	C197.535553,53.419727 194.134750,54.202679 190.387161,58.072540 
	C194.749664,58.072540 197.853439,58.072540 201.174927,58.558762 
	C201.492462,58.686443 201.809982,58.814129 202.255493,59.741348 
	C202.210068,62.590691 200.487457,61.117527 199.012970,61.377556 
	C196.153824,61.881779 193.144653,63.054039 190.913696,64.842628 
	C190.039810,65.543259 190.441055,69.059349 191.402145,70.565239 
	C193.320404,73.570869 196.521820,73.633278 199.797195,72.566208 
	C201.139557,72.128883 202.617249,72.106888 204.846619,71.605080 
	C204.631714,67.537338 204.416824,63.469601 204.500656,59.514797 
	C204.500656,59.514797 204.637009,59.226006 205.021027,58.509510 
	C204.047318,57.528820 203.073608,56.548130 201.653198,55.023365 
M178.454071,50.263020 
	C178.971008,50.180222 179.487930,50.097427 181.034241,50.468040 
	C181.938736,50.441788 182.843231,50.415535 183.747726,50.389278 
	C183.715408,49.812695 183.902084,49.073708 183.614731,48.686275 
	C181.936996,46.424164 175.960037,46.947975 173.079514,49.609020 
	C170.226227,52.244900 170.149902,55.268574 173.015350,57.668388 
	C175.115036,59.426880 178.029099,60.175602 180.354294,61.715477 
	C181.878662,62.724995 183.521194,64.157219 184.093384,65.762718 
	C184.403168,66.631912 182.777863,69.099289 181.673584,69.361046 
	C179.794922,69.806351 177.319794,69.621719 175.701706,68.670372 
	C174.454956,67.937347 174.138321,65.622330 173.408112,64.010742 
	C172.664001,64.710236 171.919876,65.409737 171.175751,66.109230 
	C170.317062,69.862709 173.332336,71.257401 176.020615,72.459084 
	C179.778503,74.138885 184.767975,72.561882 186.565323,69.255272 
	C188.251770,66.152672 188.032318,62.971989 185.089310,60.780323 
	C183.142090,59.330223 180.588959,58.723480 178.460388,57.477352 
	C176.867981,56.545116 175.520218,55.195007 174.063522,54.030975 
	C175.357651,52.726002 176.651779,51.421024 178.454071,50.263020 
M222.505676,361.769440 
	C217.693237,358.800629 213.002213,359.918427 208.263519,362.066315 
	C197.723190,366.843933 193.124649,378.392731 198.002502,388.027283 
	C203.754272,399.387970 215.009933,403.154907 225.508209,397.232666 
	C231.497482,393.854065 237.252411,383.376831 235.742142,377.980774 
	C233.791260,371.010406 229.992081,365.329620 222.505676,361.769440 
M258.264801,51.698208 
	C262.229340,53.523544 261.653412,56.300694 259.438507,58.927090 
	C256.653046,62.230038 253.458496,65.185165 250.588928,68.421997 
	C249.909058,69.188881 249.338135,70.636330 249.611511,71.481354 
	C249.834167,72.169579 251.375671,72.759636 252.362854,72.811363 
	C255.519928,72.976784 258.701965,73.017731 261.850708,72.785965 
	C262.858612,72.711784 263.793030,71.639259 264.761047,71.023506 
	C263.727448,70.465843 262.736176,69.555557 261.651306,69.425430 
	C259.526123,69.170509 257.348755,69.350517 254.931976,69.350517 
	C258.340057,64.783791 261.605835,61.329613 263.623871,57.257133 
	C264.449829,55.590336 263.311523,51.544495 261.753174,50.448154 
	C259.680237,48.989799 256.255768,48.809887 253.545868,49.149540 
	C252.011734,49.341820 250.745728,51.673302 249.358948,53.041283 
	C249.705444,53.356415 250.051941,53.671547 250.398453,53.986679 
	C252.756989,53.146404 255.115524,52.306129 258.264801,51.698208 
M245.123047,72.650734 
	C245.810547,69.613167 245.798553,69.719727 241.953888,69.286888 
	C240.622559,69.137001 239.367081,68.313446 238.076950,67.797600 
	C238.727203,66.736763 239.316437,65.632149 240.039902,64.623848 
	C241.765823,62.218300 243.990234,60.061165 245.216599,57.432072 
	C247.047989,53.505966 244.961685,50.132462 240.531128,48.844021 
	C236.262787,47.602741 232.353943,49.705933 231.267426,54.364433 
	C232.512497,53.629211 233.401459,52.665287 234.297592,52.658604 
	C236.840195,52.639645 239.385727,53.011890 241.930099,53.230095 
	C241.385345,55.462605 241.401291,58.091118 240.168015,59.837349 
	C238.182648,62.648449 235.249924,64.770386 232.964294,67.398193 
	C231.857437,68.670746 231.311218,70.430908 230.068619,72.821831 
	C235.765900,72.821831 240.066559,72.821831 245.123047,72.650734 
M211.133118,65.310364 
	C211.021332,68.372482 210.892899,71.578743 214.700500,72.524147 
	C215.945633,72.833305 217.447632,72.108025 218.832153,71.855820 
	C212.432938,67.519318 212.393875,60.179474 218.155716,56.353649 
	C216.312500,54.306080 214.445663,52.232254 212.527313,50.101204 
	C211.160522,52.172161 209.761810,54.291481 208.363098,56.410801 
	C208.779083,56.351009 209.195084,56.291218 209.611069,56.231426 
	C210.118652,58.960674 210.626236,61.689922 211.133118,65.310364 
M184.500000,52.000000 
	C184.633331,51.800003 184.766663,51.600002 184.899994,51.399998 
	C184.599991,51.433331 184.300003,51.466663 184.500000,52.000000 
z"/>
<path fill="#923604" opacity="1.000000" stroke="none" 
	d="
M187.002136,247.998779 
	C187.131790,247.598770 187.261444,247.198761 187.649918,246.264328 
	C188.226608,244.478638 188.544495,243.227356 188.862381,241.976089 
	C188.862381,241.976089 189.073410,241.830383 189.330200,241.490204 
	C190.088852,239.114929 190.590744,237.079849 191.345673,234.797852 
	C192.583069,230.521194 193.567413,226.491440 194.854706,222.199677 
	C196.327454,218.863007 197.473587,215.779083 198.671249,212.715332 
	C203.022156,201.585541 208.679535,197.865158 220.980530,198.278076 
	C224.609665,200.669708 227.959641,202.980225 231.442413,205.633698 
	C232.739761,208.991852 233.904343,212.007019 234.941666,215.246796 
	C234.894653,216.307800 234.974899,217.144211 234.903076,218.312378 
	C230.270020,232.803940 225.786743,246.962997 221.308701,261.123749 
	C216.574829,276.093445 211.845947,291.064758 206.891373,306.314636 
	C204.366837,313.491913 202.206024,320.440826 199.728577,327.274902 
	C196.762100,335.457977 190.227570,339.146454 181.632111,339.779236 
	C176.740158,340.139343 173.808258,337.423706 170.129547,335.689514 
	C170.133820,335.369537 169.998383,335.127869 169.387207,334.577942 
	C167.324402,330.466553 165.597626,326.741699 163.870850,323.016846 
	C163.913559,322.562836 163.956284,322.108826 164.014587,320.927368 
	C164.010361,319.139282 163.990524,318.078613 163.970703,317.017975 
	C164.383804,316.268921 164.796906,315.519836 165.525055,314.243622 
	C168.704773,303.859344 171.569412,294.002167 174.434021,284.145020 
	C175.020432,282.754517 175.606842,281.364044 176.489151,279.489197 
	C180.190765,268.669495 183.596451,258.334137 187.002136,247.998779 
z"/>
<path fill="#3D1A05" opacity="1.000000" stroke="none" 
	d="
M220.701385,198.196930 
	C208.679535,197.865158 203.022156,201.585541 198.671249,212.715332 
	C197.473587,215.779083 196.327454,218.863007 194.575684,222.006775 
	C191.075912,219.167755 188.158127,216.259613 185.240356,213.351456 
	C172.476212,199.786667 159.758652,186.177582 146.925873,172.678055 
	C141.503036,166.973465 138.826202,160.741760 141.059952,152.732162 
	C144.655685,139.838806 160.133682,137.594818 167.286438,142.873627 
	C170.473969,145.226074 173.405045,147.994919 176.153519,150.861450 
	C187.906311,163.119049 199.547623,175.483536 211.629761,188.266846 
	C214.920410,191.882095 217.810898,195.039520 220.701385,198.196930 
z"/>
<path fill="#C9C8C6" opacity="1.000000" stroke="none" 
	d="
M222.852203,361.935364 
	C229.992081,365.329620 233.791260,371.010406 235.742142,377.980774 
	C237.252411,383.376831 231.497482,393.854065 225.508209,397.232666 
	C215.009933,403.154907 203.754272,399.387970 198.002502,388.027283 
	C193.124649,378.392731 197.723190,366.843933 208.263519,362.066315 
	C213.002213,359.918427 217.693237,358.800629 222.852203,361.935364 
z"/>
<path fill="#EAD8CA" opacity="1.000000" stroke="none" 
	d="
M235.068909,215.022186 
	C233.904343,212.007019 232.739761,208.991852 231.851791,205.549988 
	C232.401398,205.068405 232.674408,205.013504 232.947418,204.958603 
	C238.090668,210.982864 237.635162,217.842758 235.499146,224.704361 
	C231.427399,237.784058 227.127426,250.793777 222.821243,263.799103 
	C218.103333,278.048004 213.271317,292.259125 208.135269,306.549011 
	C207.603119,306.368591 207.380920,306.176605 207.114883,306.035370 
	C211.845947,291.064758 216.574829,276.093445 221.308701,261.123749 
	C225.786743,246.962997 230.270020,232.803940 235.113586,218.111267 
	C235.340408,216.726334 235.204666,215.874268 235.068909,215.022186 
z"/>
<path fill="#363636" opacity="1.000000" stroke="none" 
	d="
M257.869446,51.582031 
	C255.115524,52.306129 252.756989,53.146404 250.398453,53.986679 
	C250.051941,53.671547 249.705444,53.356415 249.358948,53.041283 
	C250.745728,51.673302 252.011734,49.341820 253.545868,49.149540 
	C256.255768,48.809887 259.680237,48.989799 261.753174,50.448154 
	C263.311523,51.544495 264.449829,55.590336 263.623871,57.257133 
	C261.605835,61.329613 258.340057,64.783791 254.931976,69.350517 
	C257.348755,69.350517 259.526123,69.170509 261.651306,69.425430 
	C262.736176,69.555557 263.727448,70.465843 264.761047,71.023514 
	C263.793030,71.639259 262.858612,72.711784 261.850708,72.785965 
	C258.701965,73.017731 255.519928,72.976784 252.362854,72.811363 
	C251.375671,72.759636 249.834167,72.169579 249.611511,71.481354 
	C249.338135,70.636330 249.909058,69.188881 250.588928,68.421997 
	C253.458496,65.185165 256.653046,62.230038 259.438507,58.927090 
	C261.653412,56.300694 262.229340,53.523544 257.869446,51.582031 
z"/>
<path fill="#303030" opacity="1.000000" stroke="none" 
	d="
M244.745117,72.736282 
	C240.066559,72.821831 235.765900,72.821831 230.068619,72.821831 
	C231.311218,70.430908 231.857437,68.670746 232.964294,67.398193 
	C235.249924,64.770386 238.182648,62.648449 240.168015,59.837349 
	C241.401291,58.091118 241.385345,55.462605 241.930099,53.230095 
	C239.385727,53.011890 236.840195,52.639645 234.297592,52.658604 
	C233.401459,52.665287 232.512497,53.629211 231.267426,54.364433 
	C232.353943,49.705933 236.262787,47.602741 240.531128,48.844021 
	C244.961685,50.132462 247.047989,53.505966 245.216599,57.432072 
	C243.990234,60.061165 241.765823,62.218300 240.039902,64.623848 
	C239.316437,65.632149 238.727203,66.736763 238.076950,67.797600 
	C239.367081,68.313446 240.622559,69.137001 241.953888,69.286888 
	C245.798553,69.719727 245.810547,69.613167 244.745117,72.736282 
z"/>
<path fill="#292929" opacity="1.000000" stroke="none" 
	d="
M177.945908,50.116051 
	C176.651779,51.421024 175.357651,52.726002 174.063522,54.030972 
	C175.520218,55.195007 176.867981,56.545116 178.460388,57.477352 
	C180.588959,58.723480 183.142090,59.330223 185.089310,60.780323 
	C188.032318,62.971989 188.251770,66.152672 186.565323,69.255272 
	C184.767975,72.561882 179.778503,74.138885 176.020615,72.459084 
	C173.332336,71.257401 170.317062,69.862709 171.175751,66.109230 
	C171.919876,65.409737 172.664001,64.710236 173.408112,64.010742 
	C174.138321,65.622330 174.454956,67.937347 175.701706,68.670372 
	C177.319794,69.621719 179.794922,69.806351 181.673584,69.361046 
	C182.777863,69.099289 184.403168,66.631912 184.093384,65.762718 
	C183.521194,64.157219 181.878662,62.724995 180.354294,61.715477 
	C178.029099,60.175602 175.115036,59.426880 173.015350,57.668388 
	C170.149902,55.268574 170.226227,52.244900 173.079514,49.609020 
	C175.960037,46.947975 181.936996,46.424164 183.614731,48.686275 
	C183.902084,49.073708 183.715408,49.812695 183.747726,50.389278 
	C182.843231,50.415535 181.938736,50.441788 180.396057,50.050156 
	C179.153870,49.793530 178.549896,49.954788 177.945908,50.116051 
z"/>
<path fill="#EAD7CA" opacity="1.000000" stroke="none" 
	d="
M206.891373,306.314636 
	C207.380920,306.176605 207.603119,306.368591 207.893372,306.802643 
	C204.783401,316.325165 202.563110,326.189514 197.981155,334.796631 
	C195.016968,340.364838 188.139114,343.057098 181.046997,341.458099 
	C177.109039,340.570221 171.946472,342.079254 170.144775,336.064911 
	C173.808258,337.423706 176.740158,340.139343 181.632111,339.779236 
	C190.227570,339.146454 196.762100,335.457977 199.728577,327.274902 
	C202.206024,320.440826 204.366837,313.491913 206.891373,306.314636 
z"/>
<path fill="#3A3A3A" opacity="1.000000" stroke="none" 
	d="
M211.133484,64.864769 
	C210.626236,61.689922 210.118652,58.960674 209.611069,56.231426 
	C209.195084,56.291218 208.779083,56.351009 208.363098,56.410801 
	C209.761810,54.291481 211.160522,52.172161 212.527313,50.101204 
	C214.445663,52.232254 216.312500,54.306080 218.155716,56.353649 
	C212.393875,60.179474 212.432938,67.519318 218.832153,71.855820 
	C217.447632,72.108025 215.945633,72.833305 214.700500,72.524147 
	C210.892899,71.578743 211.021332,68.372482 211.133484,64.864769 
z"/>
<path fill="#3E3E3E" opacity="1.000000" stroke="none" 
	d="
M204.033371,71.895950 
	C202.617249,72.106888 201.139557,72.128883 199.797195,72.566208 
	C196.521820,73.633278 193.320404,73.570869 191.402145,70.565239 
	C190.441055,69.059349 190.039810,65.543259 190.913696,64.842628 
	C193.144653,63.054039 196.153824,61.881779 199.012970,61.377556 
	C200.487457,61.117527 202.210068,62.590691 202.608337,59.371227 
	C203.519791,59.076073 204.078400,59.151039 204.637009,59.226006 
	C204.637009,59.226006 204.500656,59.514797 204.256165,59.829033 
	C203.301788,61.470089 202.591919,62.796913 201.453949,64.144485 
	C198.676193,64.758560 196.301300,65.279655 194.022400,66.075638 
	C193.830002,66.142838 194.195465,68.941124 194.445984,68.965118 
	C196.677292,69.178879 198.941086,69.053635 201.465851,69.165466 
	C202.502060,70.167084 203.267715,71.031517 204.033371,71.895950 
z"/>
<path fill="#E9D9CB" opacity="1.000000" stroke="none" 
	d="
M186.620941,248.022888 
	C183.596451,258.334137 180.190765,268.669495 176.458023,279.148132 
	C178.172028,271.683594 180.067215,264.032074 182.327271,256.489868 
	C183.208572,253.548859 184.911209,250.853989 186.620941,248.022888 
z"/>
<path fill="#E8D9CC" opacity="1.000000" stroke="none" 
	d="
M174.101837,284.295105 
	C171.569412,294.002167 168.704773,303.859344 165.550507,313.916321 
	C165.496674,311.388397 165.242706,308.502777 166.061279,305.962830 
	C168.397095,298.714996 171.169174,291.607758 174.101837,284.295105 
z"/>
<path fill="#E4D4C9" opacity="1.000000" stroke="none" 
	d="
M232.901077,204.622345 
	C232.674408,205.013504 232.401398,205.068405 231.718994,205.207001 
	C227.959641,202.980225 224.609665,200.669708 220.980530,198.278076 
	C217.810898,195.039520 214.920410,191.882095 211.934052,188.398071 
	C212.801468,188.227249 214.045288,188.050781 214.684494,188.590454 
	C220.799622,193.753204 226.812515,199.037018 232.901077,204.622345 
z"/>
<path fill="#E4D5C8" opacity="1.000000" stroke="none" 
	d="
M185.215164,213.735352 
	C188.158127,216.259613 191.075912,219.167755 194.272736,222.268799 
	C193.567413,226.491440 192.583069,230.521194 191.009186,234.783051 
	C189.971680,235.001160 189.523712,234.987167 189.075745,234.973190 
	C192.414169,228.481857 193.572540,222.317657 186.739166,217.098907 
	C185.933899,216.483917 185.692673,215.130417 185.215164,213.735352 
z"/>
<path fill="#3E3E3E" opacity="1.000000" stroke="none" 
	d="
M200.957214,58.072540 
	C197.853439,58.072540 194.749664,58.072540 190.387161,58.072540 
	C194.134750,54.202679 197.535553,53.419727 201.742126,55.612373 
	C201.539780,56.825100 201.248505,57.448822 200.957214,58.072540 
z"/>
<path fill="#EAD7CA" opacity="1.000000" stroke="none" 
	d="
M163.651520,323.308777 
	C165.597626,326.741699 167.324402,330.466553 169.175705,334.532715 
	C164.898285,333.113403 162.904999,329.284027 163.651520,323.308777 
z"/>
<path fill="#131313" opacity="1.000000" stroke="none" 
	d="
M204.440002,71.750519 
	C203.267715,71.031517 202.502060,70.167084 201.573502,68.881943 
	C201.753372,68.027397 202.096146,67.593559 202.712463,67.073067 
	C202.609436,66.028145 202.232864,65.069885 201.872940,64.091675 
	C201.889572,64.071724 201.882034,64.123734 201.882034,64.123734 
	C202.591919,62.796913 203.301788,61.470089 204.106796,59.772568 
	C204.416824,63.469601 204.631714,67.537338 204.440002,71.750519 
z"/>
<path fill="#E9D9CB" opacity="1.000000" stroke="none" 
	d="
M188.986084,235.385818 
	C189.523712,234.987167 189.971680,235.001160 190.756134,235.029938 
	C190.590744,237.079849 190.088852,239.114929 189.339203,241.362305 
	C189.026413,239.649200 188.961411,237.723831 188.986084,235.385818 
z"/>
<path fill="#E9D9CB" opacity="1.000000" stroke="none" 
	d="
M188.511749,241.862640 
	C188.544495,243.227356 188.226608,244.478638 187.647980,245.946594 
	C187.645203,244.691925 187.903168,243.220566 188.511749,241.862640 
z"/>
<path fill="#131313" opacity="1.000000" stroke="none" 
	d="
M201.066071,58.315651 
	C201.248505,57.448822 201.539780,56.825100 201.965485,55.884407 
	C203.073608,56.548130 204.047318,57.528820 204.829010,58.867760 
	C204.078400,59.151039 203.519791,59.076073 202.544342,58.971458 
	C201.809982,58.814129 201.492462,58.686443 201.066071,58.315651 
z"/>
<path fill="#3A3A3A" opacity="1.000000" stroke="none" 
	d="
M178.199982,50.189537 
	C178.549896,49.954788 179.153870,49.793530 179.881363,49.823448 
	C179.487930,50.097427 178.971008,50.180222 178.199982,50.189537 
z"/>
<path fill="#EAD7CA" opacity="1.000000" stroke="none" 
	d="
M163.749863,317.247040 
	C163.990524,318.078613 164.010361,319.139282 163.946625,320.590576 
	C163.751724,319.812866 163.640381,318.644470 163.749863,317.247040 
z"/>
<path fill="#292929" opacity="1.000000" stroke="none" 
	d="
M184.250000,51.750000 
	C184.300003,51.466663 184.599991,51.433331 184.899994,51.400002 
	C184.766663,51.600002 184.633331,51.800003 184.250000,51.750000 
z"/>
<path fill="#E4D4C9" opacity="1.000000" stroke="none" 
	d="
M234.941666,215.246796 
	C235.204666,215.874268 235.340408,216.726334 235.265656,217.779510 
	C234.974899,217.144211 234.894653,216.307800 234.941666,215.246796 
z"/>
<path fill="#E6E6E6" opacity="1.000000" stroke="none" 
	d="
M202.438934,67.159721 
	C202.096146,67.593559 201.753372,68.027397 201.302948,68.744766 
	C198.941086,69.053635 196.677292,69.178879 194.445984,68.965118 
	C194.195465,68.941124 193.830002,66.142838 194.022400,66.075638 
	C196.301300,65.279655 198.676193,64.758560 201.453949,64.144485 
	C201.882034,64.123734 201.889572,64.071724 202.014465,64.459686 
	C202.239227,65.618340 202.339081,66.389030 202.438934,67.159721 
z"/>
<path fill="#3E3E3E" opacity="1.000000" stroke="none" 
	d="
M202.712463,67.073067 
	C202.339081,66.389030 202.239227,65.618340 201.997833,64.479637 
	C202.232864,65.069885 202.609436,66.028145 202.712463,67.073067 
z"/>
</svg>